<?xml version="1.0" standalone="no"?>
<!DOCTYPE svg PUBLIC "-//W3C//DTD SVG 1.1//EN" "http://www.w3.org/Graphics/SVG/1.1/DTD/svg11.dtd" >
<svg xmlns="http://www.w3.org/2000/svg">
<metadata></metadata>
<defs>
<font id="facebook_letter_facesregular" horiz-adv-x="1048" >
<font-face units-per-em="2048" ascent="1536" descent="-512" />
<missing-glyph horiz-adv-x="827" />
<glyph unicode="&#xd;" horiz-adv-x="681" />
<glyph unicode=" "  horiz-adv-x="827" />
<glyph unicode="&#x09;" horiz-adv-x="827" />
<glyph unicode="&#xa0;" horiz-adv-x="827" />
<glyph unicode="!" horiz-adv-x="524" d="M84 1436h360l-36 -1026h-283zM88 164q0 88 39 119q37 37 135 36q102 0 139 -36q41 -29 41 -119q0 -96 -41 -125q-37 -37 -139 -37q-98 0 -135 37q-39 31 -39 125z" />
<glyph unicode="&#x22;" horiz-adv-x="913" d="M74 1376q0 92 41 125q37 33 135 33t137 -33q39 -31 39 -125q0 -41 -14 -84q-9 -20 -13 -28l-141 -240l-98 -4l71 194q-90 14 -116 41q-41 33 -41 121zM492 1376q0 92 40 125q37 33 135.5 33t137.5 -33q39 -31 39 -125q0 -41 -15 -84q-8 -20 -12 -28l-141 -240l-98 -4 l71 194q-90 14 -117 41q-41 33 -40 121z" />
<glyph unicode="#" horiz-adv-x="1280" d="M78 530l28 199h185l76 258h-228l25 199h254l67 246h177l-70 -246h268l68 246h176l-68 -246h160l-29 -199h-184l-72 -258h228l-27 -199h-254l-67 -249h-179l68 249h-264l-70 -254l-172 5l66 249h-162zM471 729h264l74 258h-270z" />
<glyph unicode="$" horiz-adv-x="1292" d="M90 1128q33 246 217 349q90 45 213 59v209h230v-199q188 -2 364 -35l29 -333q-274 43 -393 43q-229 0 -271 -99q-14 -43 2 -82q25 -45 86.5 -73.5t182.5 -63.5q227 -72 305 -119q40 -26 69 -57q100 -100 86 -321q-25 -252 -215 -349q-88 -47 -245 -67v-201h-230v197 q-209 10 -383 45l-35 346q315 -61 463 -62q215 0 252 99q16 43 -2 82q-14 31 -54 54t-77 35.5t-117 35.5q-100 31 -142 45t-121 53t-126 86q-113 117 -88 323z" />
<glyph unicode="%" horiz-adv-x="0" d="M-1712 1067q0 381 334 373q319 8 319 -371q0 -184 -80 -280.5t-247 -90.5q-172 -8 -249 91.5t-77 277.5zM-1528 1067q1 -223 144 -223q150 0 141 223q10 225 -141 225q-143 0 -144 -225zM-1464 4l884 1421h263l-887 -1421h-260zM-721 358q-10 373 328 373q322 8 321 -369 q0 -184 -76.5 -279t-250.5 -95t-248 96t-74 274zM-541 358q1 -223 148 -223q143 0 139 225q4 225 -139 226q-147 0 -148 -228z" />
<glyph unicode="&#x26;" horiz-adv-x="1484" d="M72 342q0 258 284 399l17 11l-11 8q-121 127 -120 272q0 141 114 244q127 119 351 119q174 0 287.5 -90.5t125.5 -231.5q10 -184 -143 -305q-72 -55 -156 -84l201 -225q12 10 29 33q35 47 53 96l223 -53q-31 -90 -80 -183q-23 -43 -49 -80l260 -272h-383l-86 84 q-51 -39 -121 -68q-159 -69 -309 -61q-125 0 -219 30.5t-144.5 72.5t-80 99.5t-36.5 99.5t-7 85zM389 428q-23 -61 10 -111q6 -18 24.5 -36.5t66 -37t110.5 -18.5q78 0 156 33q33 14 59 33l-98 106q-119 125 -152 160l-4 2l-4 -2q-137 -51 -168 -129zM543 1059 q0 -88 100 -176l2 -2h4q111 27 153 77t36 107q-8 59 -51.5 90t-98.5 31q-59 0 -102 -33t-43 -94z" />
<glyph unicode="'" horiz-adv-x="497" d="M72 1376q0 92 41 125q37 33 135 33t137 -33q39 -31 39 -125q0 -41 -14 -84q-9 -20 -13 -28l-141 -240l-98 -4l71 194q-90 14 -116 41q-41 33 -41 121z" />
<glyph unicode="(" horiz-adv-x="661" d="M72 504v92q0 209 45 363.5t119.5 237.5t154.5 122t164 39h10l15 -174q-88 -18 -160 -161.5t-72 -375.5v-194q0 -231 72 -376t160 -167l-15 -168h-10q-84 0 -164 38t-154.5 121t-119.5 238.5t-45 364.5z" />
<glyph unicode=")" horiz-adv-x="675" d="M90 -82q88 18 160 161.5t72 375.5v194q0 231 -72 375.5t-160 167.5l14 168h11q84 0 163.5 -38t154.5 -121t120 -238.5t45 -364.5v-92q0 -209 -45 -363.5t-120 -237.5t-154.5 -122t-163.5 -39h-11z" />
<glyph unicode="*" horiz-adv-x="944" d="M80 1100l213 102l-213 103l108 188l195 -137l-18 237h213l-19 -237l195 137l108 -188l-217 -103l217 -102l-108 -187l-195 138l19 -240h-213l18 240l-195 -138z" />
<glyph unicode="+" horiz-adv-x="1218" d="M72 408v280h391v393h280v-393h394v-280h-394v-390h-280v390h-391z" />
<glyph unicode="," horiz-adv-x="503" d="M74 147q0 92 41 125q37 33 135 33t137 -33q39 -31 39 -125q0 -41 -14 -84q-9 -20 -13 -28l-141 -240l-98 -4l71 195q-90 14 -116 41q-41 33 -41 120z" />
<glyph unicode="-" horiz-adv-x="1083" d="M82 408v280h924v-280h-924z" />
<glyph unicode="." horiz-adv-x="499" d="M74 150q0 86 45 120q33 35 133 35t135 -35q43 -35 43 -120q0 -96 -43 -125q-39 -37 -135 -37t-133 37q-45 31 -45 125z" />
<glyph unicode="/" horiz-adv-x="1150" d="M2 0l883 1421h260l-885 -1421h-258z" />
<glyph unicode="0" horiz-adv-x="1398" d="M43 766q-4 381 154.5 588.5t504.5 199.5q182 6 312.5 -50t203 -165.5t104.5 -248t32 -316.5q0 -393 -158 -599t-500 -198q-178 -4 -306 51.5t-202.5 164t-109.5 250t-35 323.5zM408 766q-1 -479 292 -479q283 0 283 481q0 242 -68.5 360.5t-214.5 118.5 q-139 0 -215.5 -118.5t-76.5 -362.5z" />
<glyph unicode="1" horiz-adv-x="722" d="M43 1214l37 320h590v-1534h-367v1214h-4h-256z" />
<glyph unicode="2" horiz-adv-x="1208" d="M45 0v319l207 177q66 57 157 133t132 110.5t93 83.5t73.5 80t39 69t19.5 79q6 102 -68.5 147t-205.5 29q-139 -16 -359 -135l41 364q195 94 416 94q268 0 413.5 -131t145.5 -344q0 -76 -28.5 -152.5t-66.5 -135t-110 -133t-124 -120t-142 -120.5l-131 -105h610l-35 -309 h-1077z" />
<glyph unicode="3" horiz-adv-x="1148" d="M33 59l35 320q166 -88 356 -88q293 0 293 172q0 53 -25.5 92t-75 60.5t-100.5 34t-121 18.5l-153 14v258l153 12q61 8 103.5 17.5t89.5 28t71.5 51t24.5 79.5q0 145 -248 125q-182 -27 -274 -65l16 141l23 182q133 45 319 45q246 0 387.5 -108.5t141.5 -273.5 q0 -258 -289 -353v-4q158 -31 250 -127t92 -246q0 -207 -176 -337t-477 -130q-229 0 -416 82z" />
<glyph unicode="4" horiz-adv-x="1339" d="M39 326v274l606 934h465v-897h195l-23 -178l-16 -133h-156v-326h-315v326h-756zM434 637h361v549z" />
<glyph unicode="5" horiz-adv-x="1206" d="M33 53l37 320q205 -82 381 -82q322 0 321 198q0 256 -455 256q-113 0 -204 -14l92 803h887l-39 -311h-555l-35 -219q35 6 76 6q266 0 422 -111q197 -127 196 -383q0 -225 -188.5 -383t-501.5 -158q-238 0 -434 78z" />
<glyph unicode="6" horiz-adv-x="1705" d="M35 651q0 430 291 682q229 205 616 228h115l35 -306q-135 14 -254 -12t-198 -78.5t-129 -105.5t-71 -103q31 20 82 39q117 39 252 39q225 0 356.5 -113.5t139.5 -388.5q4 -244 -145.5 -400.5t-448.5 -156.5q-641 0 -641 676zM399 592q-18 -111 53.5 -211t217.5 -94 q262 12 262 233q0 125 -74 172t-205 41q-100 -8 -169.5 -50t-84.5 -91z" />
<glyph unicode="7" horiz-adv-x="1218" d="M45 1223l35 311h1091v-225q-127 -164 -253 -375q-279 -455 -392 -934h-415q57 193 147 399q205 465 494 824h-707z" />
<glyph unicode="8" horiz-adv-x="1288" d="M37 403q0 262 285 383v5q-231 119 -232 335q0 193 161 311.5t404 118.5q260 0 394.5 -116.5t134.5 -274.5q0 -221 -234 -340l-4 -2q129 -45 215 -144t86 -237q0 -209 -170 -338t-446 -129q-287 0 -440.5 128t-153.5 300zM420 438q-2 -84 60.5 -138t164.5 -54 q100 0 159.5 44t59.5 124q0 186 -250 254q-195 -49 -194 -230zM446 1139q0 -147 224 -207q70 18 115.5 70.5t45.5 121.5q0 80 -47 127t-145 47q-96 0 -144.5 -42.5t-48.5 -116.5z" />
<glyph unicode="9" horiz-adv-x="1705" d="M170 1001q-4 244 147.5 399.5t448.5 155.5q178 0 306 -52t198.5 -146t103.5 -210t33 -261q0 -430 -289 -686q-229 -203 -618 -226q-29 0 -92.5 -2t-71.5 -2l33 305q516 0 630 306q-39 -25 -81 -41q-100 -41 -248 -41q-487 0 -500 501zM512 1012q0 -227 276 -209 q100 4 170 48t84 91q31 104 -45.5 203.5t-224.5 99.5q-260 0 -260 -233z" />
<glyph unicode=":" horiz-adv-x="489" d="M70 203q0 84 39 121q41 37 141 36q94 0 135 -36q41 -39 41 -121q0 -86 -41 -125q-39 -35 -135 -35q-102 0 -141 35q-39 37 -39 125zM70 868q0 80 39 117q45 39 141 39q90 0 135 -39q41 -39 41 -117q0 -86 -41 -125q-45 -39 -135 -38q-96 0 -141 38q-39 37 -39 125z" />
<glyph unicode=";" horiz-adv-x="489" d="M68 203q0 84 38 121q41 37 140 36q96 0 137 -36q37 -35 37 -121q0 -47 -12 -84q-8 -20 -13 -29l-145 -246h-98l77 199q-92 0 -123 35q-39 37 -38 125zM68 868q0 80 38 117q45 39 140 39q92 0 137 -39q37 -35 37 -117q0 -90 -37 -125q-45 -39 -137 -38q-94 0 -140 38 q-39 37 -38 125z" />
<glyph unicode="&#x3c;" horiz-adv-x="849" d="M72 381v336l716 448v-336l-446 -282l446 -283v-336z" />
<glyph unicode="=" horiz-adv-x="1046" d="M63 168h920v278h-920v-278zM63 647v281h920v-281h-920z" />
<glyph unicode="&#x3e;" horiz-adv-x="843" d="M66 -72v336l446 283l-446 282v336l716 -452v-336z" />
<glyph unicode="?" horiz-adv-x="1062" d="M72 1133l28 251q217 47 404 48q311 0 432 -183q55 -70 61 -245h2v-9l-2 -4l2 -2h-2q0 -139 -36 -207q-102 -225 -439 -227v-147h-338v423q199 -27 262 -26h21q131 0 166 41q29 18 29 143q0 137 -35 156q-39 33 -164 33q-98 6 -391 -45zM178 164q0 90 43 119q37 37 135 36 q96 0 133 -36q43 -29 43 -119q0 -96 -43 -125q-37 -37 -133 -37q-98 0 -135 37q-43 29 -43 125z" />
<glyph unicode="@" horiz-adv-x="1607" d="M70 459q0 213 29.5 342t127.5 235q180 203 561 203q377 0 555 -147q186 -143 187 -451q0 -150 -31 -261.5t-109.5 -186t-201.5 -74.5q-88 0 -182 16q-27 6 -72 19l-4 8q0 2 -3 9t-5 11q-113 -63 -228 -63h-22q-106 0 -174 90q-45 59 -45 149v7q0 147 104 194 q41 33 213 33h121v26q0 35 -25 70q-27 20 -98 21h-233l22 209h250q242 0 299 -117q35 -70 35 -172v-303q115 -41 159 123q20 68 21 169q-10 246 -111 326q-72 63 -171 84t-244 21q-289 0 -418 -146v-4q-100 -125 -101 -407q0 -276 130 -386h2q119 -106 360 -106h397 l-22 -193h-379q-322 0 -488 152q-207 162 -206 500zM698 365q0 -68 72 -68q45 0 121 35v88h-86q-78 0 -90 -12q-16 -12 -17 -43z" />
<glyph unicode="A" horiz-adv-x="1548" d="M4 0l559 1536h430l555 -1536h-432l-72 236h-536l-70 -236h-434zM580 520h393l-197 658z" />
<glyph unicode="B" horiz-adv-x="1320" d="M74 4v1532q180 4 309 6q158 6 346 6q102 -4 186 -27.5t156 -72.5t112 -135t40 -203v-39q-1 -163 -142 -276q186 -117 187 -338v-37q0 -211 -152.5 -322.5t-347.5 -111.5q-37 0 -362.5 9t-331.5 9zM465 305l6 -2l234 -8h17q94 0 146 41q56 45 56 123q0 74 -37 121t-105 57 h-317v-332zM465 915h295q70 14 98.5 45t28.5 117q0 165 -196 165q-11 0 -23 -1l-203 -4v-322z" />
<glyph unicode="C" horiz-adv-x="1208" d="M70 719v100q0 303 86 445q163 286 599 286h3q164 0 389 -43v-303q-223 33 -352 33q-111 0 -172.5 -14.5t-100.5 -53.5q-69 -56 -69 -296v-7v-233q0 -199 61 -260q66 -78 274 -78h37q102 0 322 35v-305q-2 0 -61.5 -8.5t-98.5 -14.5q-104 -16 -231 -16q-487 0 -633 354 q-53 139 -53 379z" />
<glyph unicode="D" horiz-adv-x="1411" d="M70 0v1538q184 0 264 2q80 0 196.5 2t124.5 2h3q454 0 599 -280q88 -156 89 -445v-100q0 -260 -52 -379q-133 -348 -635 -348q-207 0 -419 4q-31 0 -87.5 1t-82.5 3zM457 303q49 -6 133 -6h37q209 0 272 76q61 78 62 258v237q0 231 -70 301q-63 70 -273 70 q-63 0 -161 -10v-926z" />
<glyph unicode="E" horiz-adv-x="1038" d="M72 0v1536h897v-297h-502v-326h399l-24 -280h-375v-330h502v-303h-897z" />
<glyph unicode="F" horiz-adv-x="1034" d="M70 0v1536h178h215h500v-297h-500v-326h401l-30 -278h-371v-635h-393z" />
<glyph unicode="G" horiz-adv-x="1300" d="M70 721v100q0 317 86 443q171 282 597 282h3q174 0 389 -41l33 -303q-223 37 -383 37q-205 0 -271 -68q-31 -18 -52 -101t-21 -202v-239q0 -213 67 -256q51 -76 266 -76h41h31v338h-227l30 278h183h387v-182v-96v-592q-82 -18 -137 -29q-158 -26 -326 -26h-12 q-485 0 -635 352q-49 121 -49 381z" />
<glyph unicode="H" horiz-adv-x="1339" d="M72 0v1536h391v-623h414v623h395v-840v-696h-395v635h-414v-635h-391z" />
<glyph unicode="I" horiz-adv-x="538" d="M76 0v1536h391v-840v-696h-391z" />
<glyph unicode="J" horiz-adv-x="870" d="M55 -14l35 309q51 0 89 3t85 17.5t77 39t51.5 70.5t21.5 110v1001h391v-571v-377q0 -154 -36 -257.5t-88 -156.5t-136 -98q-109 -55 -199 -72.5t-229 -17.5h-62z" />
<glyph unicode="K" horiz-adv-x="1374" d="M66 0v1536h393v-664l215 332q209 332 215 332h409l-497 -729q0 -4 116.5 -181t251 -380t160.5 -246h-407q-14 20 -53.5 82.5t-97.5 156t-103 162.5l-209 330v-731h-393z" />
<glyph unicode="L" horiz-adv-x="1034" d="M61 0v1536h390v-1237h499l31 -299h-920z" />
<glyph unicode="M" horiz-adv-x="2154" d="M49 4l230 1532h598l204 -729l207 729h584l233 -1536h-434l-131 1085l-313 -1085h-289l-313 1085l-131 -1085z" />
<glyph unicode="N" horiz-adv-x="1378" d="M66 0v1534h391l463 -809v809h393v-840v-694h-393l-463 819v-819h-391z" />
<glyph unicode="O" horiz-adv-x="1435" d="M39 717v100q0 326 88 445q76 129 203 196q156 86 391 86t391 -86q123 -65 203 -196q86 -123 86 -445v-100q0 -270 -49 -377q-78 -182 -240 -268q-156 -84 -391.5 -84t-390.5 84q-164 90 -240 268q-51 111 -51 377zM420 643q0 -221 63 -272q49 -70 238 -74q186 2 235 74 q57 47 58 266v233q0 256 -64 297q-61 61 -229 68q-168 -6 -229 -68q-72 -45 -72 -288v-236z" />
<glyph unicode="P" horiz-adv-x="1292" d="M76 0v1534q29 2 90 3t94 1q350 6 475 6q172 0 274.5 -49.5t159.5 -153.5q61 -127 62 -319v-72q0 -203 -35 -272q-55 -129 -163.5 -188.5t-297.5 -59.5h-17q-48 0 -145 8q-47 6 -114 13v-451h-383zM459 731q168 -15 246 -15q23 0 39 1q66 6 92 39q47 51 47 157v138 q0 121 -37 163q-37 36 -115 46q-30 4 -78 4q-75 0 -194 -9v-524z" />
<glyph unicode="Q" horiz-adv-x="1576" d="M57 717v100q0 317 86 445q78 127 203 196q160 86 391 86q238 0 391 -86q129 -70 205 -196q84 -125 84 -445v-100q0 -276 -49 -377q-18 -43 -43 -88l111 -111l141 -141h-397l-56 61l-10 5q-139 -78 -377 -78q-233 0 -391 84q-160 86 -237 268q-51 111 -52 377zM438 643 q0 -223 66 -272q49 -72 233 -74q70 0 131 14l-118 125l198 195l82 -82q0 12 1 42t1 46v233q0 256 -65 297q-59 61 -230 68q-166 -6 -227 -68q-72 -45 -72 -288v-236z" />
<glyph unicode="R" horiz-adv-x="1363" d="M78 0v1534q29 2 91 3t95 1q350 6 477 6q170 0 269.5 -48t163.5 -155q61 -135 61 -319v-72q0 -158 -64 -264q-55 -96 -178 -149q76 -29 129.5 -90.5t75.5 -114.5q4 -8 76 -185l59 -147h-405q-14 45 -37 92q-49 121 -80 184q-31 66 -70.5 108t-111.5 56q-57 12 -119 13 q-35 0 -49 -2v-451h-383zM461 731q16 0 47 -1t47 -3q102 -4 131 -4h13q20 0 42 4q63 12 103 51q47 47 47 152v112q0 125 -35 168q-39 40 -121 50q-34 4 -86 4q-75 0 -188 -9v-524z" />
<glyph unicode="S" horiz-adv-x="1292" d="M84 1124q27 254 217 349q109 59 346 71h58q164 0 397 -35l33 -335q-188 47 -394 47q-227 0 -268 -103q-8 -20 -8 -40q0 -22 10 -42q16 -33 59.5 -58.5t83 -39.5t123.5 -39q285 -80 373 -174q93 -93 93 -247q0 -34 -5 -72q-27 -252 -217 -349q-104 -57 -348 -69h-49 q-195 0 -459 43l-31 344q274 -59 461 -60q219 0 252 99q9 19 9 38q0 21 -11 42q-20 43 -77.5 68.5t-170.5 58.5q-283 72 -393 182q-88 95 -88 253q0 33 4 68z" />
<glyph unicode="T" horiz-adv-x="1288" d="M80 1237v297h362h394h366v-297h-366v-543v-694h-394v1237h-362z" />
<glyph unicode="U" horiz-adv-x="1507" d="M74 719v815h381v-893q0 -219 63 -270q53 -72 238 -78q186 6 235 78q59 51 60 264v899h387v-815q0 -264 -54 -381q-78 -182 -237 -266q-162 -86 -391.5 -86t-390.5 86q-166 90 -240 266q-51 104 -51 381z" />
<glyph unicode="V" horiz-adv-x="1503" d="M0 1534h432l320 -1085l319 1085h432l-483 -1534h-268h-267z" />
<glyph unicode="W" horiz-adv-x="2091" d="M0 1534h432l232 -969l210 969h170h3h172l211 -969l229 969h430l-408 -1534h-456l-181 719l-176 -719h-458z" />
<glyph unicode="X" horiz-adv-x="1466" d="M55 0l363 788l-344 746h444l211 -535l211 535h446l-346 -746l361 -788h-459l-213 573l-215 -573h-459z" />
<glyph unicode="Y" horiz-adv-x="1280" d="M6 1534h430l205 -633l205 633h428l-612 -1534h-431l191 477z" />
<glyph unicode="Z" horiz-adv-x="1310" d="M25 0l673 1237h-579l31 297h1140l-663 -1227h614l-43 -307h-1173z" />
<glyph unicode="[" horiz-adv-x="638" d="M72 -133v1724h497v-131h-217v-1460h217v-133h-497z" />
<glyph unicode="\" horiz-adv-x="1153" d="M2 1421h262l885 -1421h-264z" />
<glyph unicode="]" horiz-adv-x="649" d="M72 0h217v1460h-217v133h497v-1724h-497v131z" />
<glyph unicode="^" horiz-adv-x="1329" d="M61 811l461 862h281l465 -862h-316l-288 571h-9l-288 -571h-306z" />
<glyph unicode="_" horiz-adv-x="1222" d="M78 0v285h1071v-285h-1071z" />
<glyph unicode="a" d="M61 307v8q0 197 140 263q56 38 277 38h11h158v37q0 113 -33 131q-35 27 -127 27h-315l31 279h338q323 0 399 -160q45 -92 45 -258v-672h-278q-2 2 -4.5 10t-2.5 10q-6 14 -10 48q-154 -80 -301 -80h-29q-152 0 -239 116q-59 90 -60 203zM399 315q0 -90 93 -90 q55 0 155 45v123h-112q-98 0 -119 -20q-16 -16 -17 -58z" />
<glyph unicode="b" horiz-adv-x="1110" d="M68 31v1503l335 59v-526q123 41 242 41q289 0 361 -152q38 -61 38 -304v-13v-109q0 -266 -38 -329q-12 -41 -72 -101q-124 -114 -415 -114h-5q-209 0 -446 45zM403 268l99 -6h26q145 0 170 94q8 25 9 66v278q0 102 -95 123h-28h-23q-82 0 -158 -45v-510z" />
<glyph unicode="c" horiz-adv-x="980" d="M72 510v74q0 233 61 319q121 203 430 203q168 0 346 -45v-273q-199 37 -307 37q-119 0 -160 -41q-34 -22 -34 -164v-8v-139q0 -137 30 -162q37 -47 158 -47h25q76 0 286 39h2v-270q0 -10 -180 -37q-78 -10 -166 -10q-346 0 -454 252q-37 80 -37 272z" />
<glyph unicode="d" horiz-adv-x="1116" d="M68 530v109q0 246 41 317q68 152 360 152q121 -4 240 -41l2 195v4q0 164 2 268l334 59v-1564q-264 -43 -449 -43q-295 0 -420 114q-57 59 -69 101q-41 66 -41 329zM406 424q0 -37 8 -68q27 -94 174 -94h22l99 4v510q-76 47 -156 47h-25l-24 -2q-98 -18 -98 -123v-274z " />
<glyph unicode="e" horiz-adv-x="1097" d="M76 430v262q0 289 241 383q106 35 230 35q338 0 440 -221q39 -86 39 -246v-188v-6h-612v-33q0 -111 67 -135q53 -14 121 -15h27q180 0 368 39h2v-274q0 -6 -172 -33q-106 -12 -247 -12q-360 0 -465 243q-39 96 -39 201zM414 676h274v18q0 113 -49 135q-37 25 -90 25 q-135 0 -135 -127v-51z" />
<glyph unicode="f" horiz-adv-x="854" d="M63 809v281h164v167q0 258 176 330q74 29 158 29h254v-279h-151q-66 0 -89 -37q-14 -23 -14 -83v-127h258l-31 -281h-227v-809h-334v809h-164z" />
<glyph unicode="g" horiz-adv-x="1126" d="M72 465v108q0 240 41 330q63 143 194 184q76 20 151 20q151 0 302 -81q0 29 8 47q2 6 6 23h279v-1069q-2 -10 -2 -27v-39q-10 -76 -37 -145q-109 -246 -469 -246q-139 0 -244 12q-172 29 -172 33v270l2 2q184 -37 367 -37h26q78 0 121 17q72 29 72 133v37 q-25 -10 -68 -21q-78 -18 -176 -18q-289 0 -360 152q-41 59 -41 315zM410 406q0 -104 98 -123l27 -4h20q80 0 162 49v448q-16 6 -92 27q-23 4 -37 6q-22 3 -40 3q-104 0 -128 -83q-10 -35 -10 -63v-260z" />
<glyph unicode="h" horiz-adv-x="1118" d="M70 -2v1536l338 57v-528q121 41 239 41q291 0 363 -152q39 -57 39 -315v-639h-340v698q0 104 -93 123l-30 2h-23q-72 0 -155 -47v-776h-338z" />
<glyph unicode="i" horiz-adv-x="466" d="M59 1366q0 88 37 123q45 35 140 35q98 0 133 -35q43 -35 43 -123q0 -86 -43 -121q-35 -35 -133 -35q-94 0 -140 35q-37 35 -37 121zM66 0h337v1090h-337v-1090z" />
<glyph unicode="j" horiz-adv-x="743" d="M27 -147v-281q94 -4 141 -4q358 0 465 248q23 49 35 145q4 37 4 51v15v1063h-336v-1049v-41q0 -115 -69.5 -133.5t-121.5 -18.5h-26q-27 0 -92 5zM328 1366q0 88 43 123q35 35 133 35q100 0 135 -35q41 -37 41 -123q0 -84 -41 -121q-35 -35 -135 -35q-98 0 -133 35 q-43 35 -43 121z" />
<glyph unicode="k" horiz-adv-x="1136" d="M72 0v1534l336 59v-983h2l305 482h362l-334 -529l334 -563h-362l-305 508h-2v-508h-336z" />
<glyph unicode="l" horiz-adv-x="688" d="M72 440v15v1081l338 59v-1126v-41q0 -111 71 -135q51 -14 176 -14v-283q-31 -2 -82 -2q-356 0 -466 252q-29 74 -35 141q-2 18 -2 53z" />
<glyph unicode="m" horiz-adv-x="1771" d="M72 0v1096h217h59q2 -2 6 -10.5t6 -10.5q18 -41 21 -51q158 78 297 84h18q8 0 16 1q148 0 232 -71q4 0 6 -2q205 74 346 74q293 0 359 -154q43 -63 43 -317v-639h-340v700q0 102 -94 123q-21 4 -44 4q-78 0 -167 -49v-778h-340v700q0 102 -95 123q-27 3 -47 3 q-10 0 -18 -1q-88 -14 -143 -47h-2v-778h-336z" />
<glyph unicode="n" horiz-adv-x="1118" d="M68 0v1094h278l10 -21q18 -41 21 -51q2 0 18.5 9t31.5 16.5t44 17.5t57.5 18.5t67.5 14.5t78 8q19 1 37 1q91 0 158 -25q80 -30 137 -126q41 -76 41 -317v-639h-338v700q0 100 -97 123q-27 3 -47 3q-10 0 -18 -1q-88 -14 -144 -47v-778h-335z" />
<glyph unicode="o" horiz-adv-x="1034" d="M27 428v240q0 319 276 409q106 31 197 31h32q345 0 445 -262q27 -80 27 -199v-201q0 -315 -226 -413q-113 -47 -266 -47q-336 0 -438 219q-47 90 -47 223zM365 406q0 -141 147 -142h8q117 0 146 103q0 8 1 30.5t1 38.5v223q0 131 -74 152q-23 12 -66 12h-26 q-90 0 -127 -73q-10 -31 -10 -70v-274z" />
<glyph unicode="p" horiz-adv-x="1118" d="M70 -494v1332v233v25h278q4 -16 6 -23q6 -16 11 -49q160 83 304 83q74 0 144 -22q129 -43 195 -184q41 -111 41 -330v-106q0 -246 -41 -318q-66 -153 -355 -153h-4q-88 0 -174 20q-43 10 -67 21v-37v-430zM408 326q84 -47 157 -47h21l28 2q94 20 95 122v254q0 45 -9 68 q-24 84 -120 84q-21 0 -45 -4q-14 -2 -37 -6q-76 -20 -90 -27v-446z" />
<glyph unicode="q" horiz-adv-x="1134" d="M74 465v104q0 238 43 332q68 145 194 184q70 21 145 21q146 0 306 -82q4 33 10 49q2 6 6 23h279v-25v-233v-1272l-340 -62v494v37q-20 -10 -66 -21q-86 -20 -176 -20q-291 0 -358 151q-43 72 -43 320zM416 401q0 -98 96 -120l29 -2h20q74 0 156 45v450q-8 4 -86 25 q-14 2 -35 6q-27 4 -50 4q-104 0 -122 -84q-8 -25 -8 -68v-256z" />
<glyph unicode="r" horiz-adv-x="817" d="M72 0v1100h276q2 -8 10 -25q10 -23 19 -55l78 29q69 25 161 45q53 12 129 16l33 -289q-18 1 -35 1q-60 0 -108 -11l-23 -4q-61 -12 -206 -66v-55v-686h-334z" />
<glyph unicode="s" horiz-adv-x="1007" d="M47 793q10 82 47 141t82 90t112.5 50.5t112.5 24.5t107 7q33 1 67 1q148 0 310 -28l30 -288q-74 16 -172 28q-65 8 -136 8q-35 0 -73 -2q-110 -6 -128 -47q-12 -31 17.5 -53.5t90.5 -39.5t128 -33.5t137.5 -46.5t109.5 -66q75 -75 75 -205q0 -18 -1 -37 q-10 -80 -47 -139.5t-81 -90t-111 -50t-113 -24.5t-107 -7q-229 0 -418 37l-31 292q49 -10 116 -21q67 -10 169 -22q53 -6 100 -7q42 -1 78 5q76 10 90 45q12 31 -17.5 51.5t-89 36t-125 32t-136 48t-115.5 72.5q-80 69 -80 198q0 19 2 40z" />
<glyph unicode="t" horiz-adv-x="905" d="M76 811v281h164v272l335 57v-329h256l-34 -281h-222v-311v311v-387q0 -45 2.5 -67.5t19.5 -47t52 -35.5q74 -32 176 -32v-246h-80h-32h-78t-74 3t-73.5 10t-65.5 19.5t-60.5 32t-48 48t-40 66.5t-22.5 89t-9 115v15.5v36t-1 49t-1 59v63.5v209h-164z" />
<glyph unicode="u" horiz-adv-x="1142" d="M74 461v631h342v-693q0 -104 98 -125q27 -3 48 -3q10 0 18 1q80 4 147 47l2 773h340v-1092h-281l-12 18q-14 33 -18 50q-4 -2 -25.5 -12.5t-46 -19.5t-59.5 -20.5t-80 -19.5t-92 -10q-19 -1 -37 -1q-93 -1 -161 25q-81 30 -142 129q-41 84 -41 322z" />
<glyph unicode="v" horiz-adv-x="1191" d="M0 1092h367l233 -734l227 734h365l-375 -1092h-430z" />
<glyph unicode="w" horiz-adv-x="1714" d="M25 1090h344l176 -687l160 687h301l159 -687l174 687h347l-320 -1090h-369l-141 483l-145 -483h-367z" />
<glyph unicode="x" horiz-adv-x="1165" d="M45 0l299 563l-285 527h369l160 -367l155 367h369l-283 -527l297 -563h-376l-162 385l-162 -385h-381z" />
<glyph unicode="y" horiz-adv-x="1282" d="M37 1090h375l254 -674l217 674h368l-176 -498l-211 -592q-27 -74 -40 -106.5t-47 -98t-81 -109.5t-108 -73q-109 -45 -266 -45q-53 0 -140 4v281q61 -4 94 -5h23q63 0 119 19q72 18 71 133z" />
<glyph unicode="z" horiz-adv-x="1062" d="M29 0l493 807h-428l39 283h907l-465 -811h422l-30 -279h-938z" />
<glyph unicode="{" horiz-adv-x="870" d="M63 524v47q55 10 95 31q94 49 94 135q0 147 8 268t21.5 207t36 152t45 105.5t55.5 66.5t59.5 38t64.5 15t65.5 1t66.5 -6t63 -3h6l21 -209q-10 0 -33.5 4t-39 6t-38 -6t-39 -28.5t-34 -63.5t-27.5 -108.5t-17.5 -168t-7.5 -235.5q0 -166 -112 -225q43 -16 77.5 -70.5 t34.5 -154.5q0 -131 7.5 -233.5t17.5 -167t27.5 -108.5t33 -63.5t39 -29t39 -8.5t39 5t33.5 4l-21 -202h-6q-25 0 -79 -5.5t-84.5 -6.5t-80 12.5t-78 42t-63.5 90t-54 152t-32.5 231.5t-13.5 325q0 84 -94 134q-39 20 -95 30z" />
<glyph unicode="|" horiz-adv-x="430" d="M94 -121v1655h246v-1655h-246z" />
<glyph unicode="}" horiz-adv-x="851" d="M92 -274q8 0 34 -6.5t39 -6.5t37.5 8.5t39 29t33 64.5t28.5 108.5t17.5 168t7.5 234.5q0 170 112 225q-113 39 -112 225q0 131 -7.5 233.5t-17.5 167t-27.5 108.5t-33 63.5t-39 28.5t-38.5 8t-39 -5t-34 -4l21 203h6q25 0 79 5t84.5 6t80 -12t78 -42t63.5 -90.5 t54.5 -151.5t32.5 -231t13 -326q0 -90 94 -135q41 -23 95 -29v-47q-55 -10 -95 -30q-94 -49 -94 -136q0 -147 -8 -268t-21.5 -207t-36 -151.5t-45 -105.5t-55 -66.5t-59.5 -37.5t-65 -15.5t-65.5 -1t-66.5 6.5t-63 3h-6z" />
<glyph unicode="~" horiz-adv-x="1327" d="M66 352q-8 209 85 325t257 116q127 0 272 -68q143 -61 178 -61q51 0 73.5 29.5t33.5 119.5h295q14 -430 -347 -430q-115 0 -284 68q-49 25 -65.5 33t-42 15t-52.5 7q-88 0 -104 -154h-299z" />
<glyph unicode="&#xa1;" horiz-adv-x="530" d="M86 8h365l-43 1014h-283zM92 1268q0 88 41 121q39 35 131 34q102 0 139 -34q39 -35 39 -121t-39 -121q-37 -39 -139 -39q-92 0 -131 39q-41 33 -41 121z" />
<glyph unicode="&#xa2;" horiz-adv-x="1024" d="M66 516v68q0 233 65 323q100 160 324 193v205h235v-199q147 -10 268 -39v-276q-195 39 -327 38q-164 0 -211 -41q-33 -20 -33 -174v-139q0 -141 29 -164q37 -45 209 -45h24q106 0 307 39h2v-274q0 -10 -190 -35q-6 0 -32.5 -3t-45.5 -5v-199h-235v207q-258 37 -353 246 q-37 78 -36 274z" />
<glyph unicode="&#xa3;" horiz-adv-x="1259" d="M70 0v188q106 45 189 141.5t83 207.5q0 74 -4 94h-244v239h197q-16 72 -17 195q0 217 152.5 350t402.5 133q176 0 304 -59l32 -291q-53 20 -154.5 43t-162.5 23q-121 0 -175.5 -60.5t-54.5 -152.5q0 -78 27 -181h336v-239h-303q4 -96 -23 -168q-43 -102 -118 -166v-4h651 v-293h-1118z" />
<glyph unicode="&#xa4;" horiz-adv-x="1333" d="M70 1030l155 150l176 -181q109 76 263 76q162 0 268 -74l174 179l154 -148l-199 -164q74 -117 74 -241q0 -152 -82 -256l194 -172l-149 -148l-168 195q-115 -88 -266 -88q-158 0 -267 82l-170 -189l-147 148l190 170q-82 94 -82 249q0 141 80 250zM451 621 q0 -119 64.5 -183.5t148.5 -64.5q82 0 146 66.5t64 187.5q0 102 -59 167.5t-151.5 65.5t-152.5 -65t-60 -174z" />
<glyph unicode="&#xa5;" horiz-adv-x="1337" d="M6 1534h443l215 -576l217 576h448l-432 -905h180v-154h-196v-78h196v-151h-196l-2 -246h-447l4 246h-196v151h196v78h-196v154h184z" />
<glyph unicode="&#xa7;" horiz-adv-x="1425" d="M123 1169q25 213 223 289q94 43 275 55q61 4 92 5h49h4h8h4q205 0 414 -29v-4q8 -2 24.5 -4t24.5 -2l33 -287q-244 51 -477 51q-231 0 -269 -80q-16 -41 7 -67q14 -39 98 -68q27 -8 86 -21.5t74 -17.5q229 -53 321 -100q55 -23 121 -70q74 -66 83 -151.5t-18.5 -147 t-70.5 -114.5q-14 -27 -33 -46v-4l6 -6q104 -88 90 -268q-16 -109 -71.5 -178.5t-155.5 -110.5q-113 -45 -274 -55q-23 -4 -89 -4q-14 -4 -57 -4h-2h-10h-4q-268 10 -404 32q-37 4 -53 13l-37 278q242 -47 479 -47q229 0 267 82q14 39 -4 68q-14 33 -103 63q-39 16 -158 47 q-233 53 -319 96q-68 27 -121 68q-174 156 6 416q12 23 41 47q-4 0 -5 4t-5 4q-115 94 -90 268zM467 678q-16 -35 16 -66q41 -49 246 -86q72 -25 193 -41q44 23 67 74q8 39 -16 70q-51 47 -244 90q-98 20 -201 37q-55 -47 -61 -78z" />
<glyph unicode="&#xa9;" horiz-adv-x="1050" d="M78 618.5q0 184.5 129 313.5t315 129q182 0 312.5 -130.5t130.5 -312.5q0 -184 -130 -315t-313 -131q-184 0 -314 131t-130 315.5zM152 618q0 -154 108.5 -262t262 -108t261 108t107.5 262q0 152 -107.5 259.5t-261 107.5t-262 -107.5t-108.5 -259.5zM307 600v39 q0 106 27 137h2v2q53 86 203 86q88 0 151 -16v-84q-100 14 -133 14q-74 0 -100 -24q-29 -25 -29 -103v-69q0 -74 25 -97q23 -29 102 -28h12q57 0 123 12v-86q-4 0 -69 -10q-23 -2 -82 -2q-176 0 -213 110q-18 27 -19 119z" />
<glyph unicode="&#xab;" horiz-adv-x="1644" d="M63 541l482 612h428l-488 -612l488 -615h-428zM676 541l481 612h428l-487 -612l487 -615h-428z" />
<glyph unicode="&#xad;" horiz-adv-x="1083" d="M82 408v280h924v-280h-924z" />
<glyph unicode="&#xae;" horiz-adv-x="1044" d="M80 1174q0 182 130 312t314.5 130t314.5 -130t130 -312q0 -184 -130 -315.5t-314.5 -131.5t-314.5 131t-130 316zM154 1174q0 -154 109 -262.5t261 -108.5q154 0 261.5 108.5t107.5 262.5q0 152 -107.5 259t-261.5 107q-152 0 -261 -107.5t-109 -258.5zM332 918v520 q63 12 168 12q123 0 182 -43q51 -39 51 -104q0 -121 -106 -152v-2q35 -14 52.5 -29.5t27.5 -54.5q8 -27 18 -60.5t16.5 -55t12.5 -31.5h-111q-23 61 -37 124q-10 39 -34.5 55.5t-73.5 20.5h-58v-200h-108zM440 1188h68q61 0 93 31.5t26 70.5q-8 86 -117 86q-23 0 -44.5 -1 t-25.5 -1v-186z" />
<glyph unicode="&#xb0;" horiz-adv-x="872" d="M74 1073q0 154 96 253t268 99q170 0 262.5 -96t92.5 -243.5t-97.5 -245t-259.5 -97.5q-166 0 -264 95.5t-98 234.5zM293 1085q0 -70 37.5 -115.5t103.5 -45.5q63 0 100 46t37 115q0 68 -37.5 116t-103.5 48q-63 0 -100 -49t-37 -115z" />
<glyph unicode="&#xb1;" horiz-adv-x="1224" d="M86 -111h1061v281h-1061v-281zM86 653v281h389v387h283v-387h389v-281h-389v-389h-283v389h-389z" />
<glyph unicode="&#xb5;" horiz-adv-x="1118" d="M70 -412v1502h340v-682q0 -104 92 -123q35 -6 65 -4q72 4 146 47v762h336v-1076h-279q-2 6 -10 19q-18 41 -21 51q-2 -2 -22.5 -12.5t-45 -20.5t-58 -21.5t-77.5 -19.5t-92 -10q-8 0 -19 -1t-15 -1v-410h-340z" />
<glyph unicode="&#xb6;" horiz-adv-x="1572" d="M78 1196q-4 90 19.5 169t88 159t169 136t276.5 92t397 36q307 0 463 -29v-1872h-315v1659h-230v-1659h-307v813h-14q-76 0 -166 31t-176 89.5t-144.5 157.5t-60.5 218z" />
<glyph unicode="&#xbb;" horiz-adv-x="1662" d="M76 -72l487 613l-487 614h428l481 -614l-481 -613h-428zM688 -72l488 613l-488 614h428l481 -614l-481 -613h-428z" />
<glyph unicode="&#xbf;" horiz-adv-x="1069" d="M70 426q2 -168 59 -248q135 -180 432 -180q205 0 410 51l26 246q-291 -49 -395 -47q-127 0 -160 37q-35 23 -34.5 149.5t30.5 149.5q35 41 156 41h29q90 0 258 -31v430h-334v-147q-338 -6 -443 -230q-33 -68 -34 -211v-2v-8zM535 1268q0 84 40 121q41 35 135.5 34.5 t139.5 -34.5q35 -33 35 -121t-35 -121q-43 -39 -139 -39q-100 0 -136 39q-40 37 -40 121z" />
<glyph unicode="&#xc0;" horiz-adv-x="1550" d="M6 0h432l72 236h534l72 -236h432l-557 1534h-428zM408 1987h254l200 -367h-180zM582 518l194 660l195 -660h-389z" />
<glyph unicode="&#xc1;" horiz-adv-x="1550" d="M4 0h434l72 236h534l72 -236h432l-555 1534h-430zM582 518l194 660l197 -660h-391zM688 1620l203 367h256l-277 -367h-182z" />
<glyph unicode="&#xc2;" horiz-adv-x="1550" d="M4 0l555 1534h430l557 -1534h-434l-72 236h-532l-72 -236h-432zM438 1620l221 287h232l219 -287h-219l-117 141l-115 -141h-221zM578 518h391l-195 660z" />
<glyph unicode="&#xc3;" horiz-adv-x="1550" d="M4 0h432l74 236h534l70 -236h432l-555 1534h-430zM453 1604q-6 115 45 176t141 61q47 0 147 -35q74 -35 97 -34q29 0 42 16t17 63h158q8 -233 -187 -233q-55 0 -155 39q-70 27 -88 26q-47 0 -54 -79h-163zM580 518l196 660l195 -660h-391z" />
<glyph unicode="&#xc4;" horiz-adv-x="1548" d="M2 0h430l72 236h534l72 -236h434l-557 1534h-430zM399 1794q0 70 31 96q37 29 111 29q82 0 110 -29q33 -24 33 -96q0 -74 -33 -98q-29 -31 -110 -31q-76 0 -111 31q-31 27 -31 98zM575 518l197 660l195 -660h-392zM860 1794q0 72 33 96q31 29 108 29q80 0 109 -29 q35 -24 35 -96q0 -74 -35 -98q-29 -31 -109 -31q-78 0 -108 31q-33 25 -33 98z" />
<glyph unicode="&#xc5;" horiz-adv-x="1556" d="M4 0l559 1534h428l559 -1534h-436l-70 238h-534l-70 -238h-436zM547 1780q0 92 61 149.5t174 57.5q111 0 169.5 -57.5t58.5 -147.5q0 -84 -62.5 -140.5t-167.5 -56.5q-106 0 -169.5 56.5t-63.5 138.5zM582 520h393l-195 660zM690 1782q0 -37 23.5 -64.5t64.5 -27.5 q43 0 66.5 25.5t23.5 66.5q0 43 -23.5 72.5t-68.5 29.5q-41 0 -63.5 -30.5t-22.5 -71.5z" />
<glyph unicode="&#xc6;" horiz-adv-x="2101" d="M4 0l1020 1534h1006v-297h-502v-322h401l-33 -282h-368v-332h502v-301h-486h-356h-49v236h-529l-145 -236h-461zM764 518h375v612z" />
<glyph unicode="&#xc7;" horiz-adv-x="1222" d="M74 719v100q0 332 88 443q164 281 602 280q199 0 385 -41v-303q-227 37 -348 37q-214 0 -273 -72q-31 -18 -51 -97t-20 -202v-235q0 -195 63 -258q55 -78 273 -78h34q96 0 322 35v-303q-66 -12 -160 -25q-88 -14 -219 -14l-29 -54q133 -31 133 -141q0 -88 -63 -129 t-154 -41q-94 0 -151 35l35 111q49 -27 100 -27q66 0 66 47t-142 68l62 137q-369 39 -502 346q-51 96 -51 381z" />
<glyph unicode="&#xc8;" horiz-adv-x="1038" d="M74 0h893v297h-502v336h364l33 282h-397v322h502v297h-893v-1534zM193 1985h256l200 -363h-180z" />
<glyph unicode="&#xc9;" horiz-adv-x="1038" d="M74 0v1534h893v-297h-502v-322h397l-33 -282h-364v-336h502v-297h-893zM424 1622l201 363h258l-279 -363h-180z" />
<glyph unicode="&#xca;" horiz-adv-x="1038" d="M76 0v1534h891v-297h-498v-322h397l-32 -282h-365v-336h498v-297h-891zM186 1622l224 285h227l221 -285h-221l-117 137l-110 -137h-224z" />
<glyph unicode="&#xcb;" horiz-adv-x="1038" d="M74 0h891v297h-500v338h366l35 278h-401v322h500v299h-891v-1534zM141 1790q0 74 33 98q29 29 111 29q76 0 106 -29q35 -24 35 -98q0 -70 -35 -94q-33 -33 -106 -33q-80 0 -111 33q-33 25 -33 94zM600 1790q0 74 35 98q29 29 106.5 29t112.5 -29q33 -28 33 -98 q0 -66 -33 -94q-37 -33 -112.5 -33t-106.5 33q-35 25 -35 94z" />
<glyph unicode="&#xcc;" horiz-adv-x="638" d="M-2 1989h258l203 -365h-180zM172 0v1534h395v-840v-694h-395z" />
<glyph unicode="&#xcd;" horiz-adv-x="651" d="M72 0v1534h395v-840v-694h-395zM190 1624l203 365h256l-274 -365h-185z" />
<glyph unicode="&#xce;" horiz-adv-x="753" d="M39 1622l223 287h227l224 -287h-224l-112 141l-115 -141h-223zM178 0v1534h395v-840v-694h-395z" />
<glyph unicode="&#xcf;" horiz-adv-x="815" d="M35 1790q0 74 33 98q29 29 108 29q78 0 107 -29q36 -24 36 -98q0 -68 -36 -96q-31 -31 -107 -31q-78 0 -108 31q-33 27 -33 96zM209 0h391v694v840h-391v-1534zM492 1790q0 74 34 98q31 29 111 29t108 -29q31 -26 31 -98q0 -68 -31 -96q-31 -31 -108.5 -31t-110.5 31 q-35 29 -34 96z" />
<glyph unicode="&#xd0;" horiz-adv-x="1574" d="M8 666v184h225v678q182 0 263 2q82 0 198.5 2t122.5 2q448 0 598 -281q86 -154 86 -444v-96q0 -250 -51 -383q-131 -344 -631 -344q-209 0 -418 4q-29 0 -85 1t-83 3v672h-225zM614 295q66 -8 136 -8h41q205 0 268 75q61 72 61 261v235q0 225 -69 299q-63 68 -271 68 q-86 0 -166 -8v-367h215v-184h-215v-371z" />
<glyph unicode="&#xd1;" horiz-adv-x="1378" d="M63 0h394v817l465 -817h393v694v840h-393v-809l-465 809h-394v-1534zM365 1604q-6 113 46 175t140 62q47 0 147 -35q82 -35 97 -34q29 0 41 16t18 63h160q8 -233 -189 -233q-55 0 -155 39q-68 27 -86 26q-49 0 -56 -79h-163z" />
<glyph unicode="&#xd2;" horiz-adv-x="1411" d="M27 715q0 -272 49 -377q70 -166 239 -268q158 -84 392 -86q233 4 387 86q164 88 241 268q49 111 49 377v100q0 326 -84 445q-76 127 -206 198q-158 84 -387 84q-233 0 -392 -84q-129 -74 -204 -198q-84 -119 -84 -445v-100zM344 1982h254l201 -364h-178zM412 635v233 q0 258 65 295q59 66 230 72q170 -8 229 -72q70 -41 70 -286v-234q0 -225 -64 -272q-51 -74 -235 -76q-190 4 -236 76q-59 37 -59 264z" />
<glyph unicode="&#xd3;" horiz-adv-x="1419" d="M27 715q0 -262 51 -377q70 -168 237 -268q160 -82 392 -86q233 2 391 86q170 102 239 268q51 104 52 377v100q-1 326 -91 445q-66 123 -200 198q-158 84 -391 84q-227 0 -392 -84q-125 -72 -200 -198q-88 -119 -88 -445v-100zM408 643v234q0 246 71 286q59 66 228 72 q170 -6 229 -72q63 -41 63 -295v-233q0 -219 -57 -264q-51 -74 -235 -76q-185 2 -236 76q-63 47 -63 272zM612 1618l203 364h254l-274 -364h-183z" />
<glyph unicode="&#xd4;" horiz-adv-x="1419" d="M31 715v98q0 336 88 449q78 131 203 196q158 86 391 86q236 0 389 -86q127 -67 205 -196q84 -121 84 -449v-98q0 -268 -50 -379q-78 -182 -239 -268q-154 -80 -389 -84q-236 2 -391 84q-164 90 -238 268q-53 111 -53 379zM375 1622l221 285h231l220 -285h-220l-116 137 l-115 -137h-221zM412 641q0 -223 65 -270q47 -72 236 -78q182 6 235 78q57 43 58 262v239q0 252 -66 297q-59 59 -227 66q-172 -6 -228 -66q-74 -51 -73 -288v-240z" />
<glyph unicode="&#xd5;" horiz-adv-x="1425" d="M31 717q0 -272 51 -377q78 -180 240 -270q158 -84 391 -84t391 84q162 90 239 270q51 104 52 377v100q0 328 -86 445q-76 129 -205 198q-152 82 -391 86q-240 -4 -391 -86q-129 -70 -205 -198q-86 -117 -86 -445v-100zM389 1604q-6 115 45 176t141 61q47 0 148 -35 q82 -35 96 -34q29 0 41 16t19 63h159q8 -233 -188 -233q-55 0 -156 39q-70 27 -86 26q-49 0 -55 -79h-164zM412 643v236q0 242 73 288q51 61 228 68q178 -6 229 -68q66 -41 66 -297v-235q0 -221 -60 -266q-49 -68 -235 -74q-186 6 -236 74q-66 53 -65 274z" />
<glyph unicode="&#xd6;" horiz-adv-x="1427" d="M33 719q0 -272 55 -383q72 -176 234 -268q156 -82 393 -82q240 0 389 82q168 92 239 268q51 111 52 383v96q0 326 -88 445q-70 120 -203 198q-154 86 -389 88q-233 -2 -393 -88q-129 -76 -201 -198q-88 -121 -88 -445v-96zM342 1790q0 72 33 96q31 31 108 31 q80 0 111 -31q35 -24 35 -96q0 -74 -35 -98q-31 -29 -111 -29q-78 0 -108 29q-33 25 -33 98zM414 643v231q0 244 71 289q57 63 230 70q168 -6 229 -70q63 -41 64 -297v-231q0 -221 -56 -266q-51 -70 -237 -76q-186 6 -238 76q-63 47 -63 274zM803 1790q0 70 31 96 q31 31 112 31q78 0 107 -31q32 -24 32 -96q0 -74 -32 -98q-29 -29 -107 -29q-82 0 -112 29q-31 27 -31 98z" />
<glyph unicode="&#xd7;" horiz-adv-x="1275" d="M76 199l346 344l-346 344l219 221l344 -346l348 346l221 -221l-346 -344l346 -344l-221 -224l-348 347l-344 -347z" />
<glyph unicode="&#xd8;" horiz-adv-x="1724" d="M78 764v24q10 758 760 758h51q131 0 248 -26l116 209l222 -125l-103 -185q264 -182 275 -631v-24q0 -477 -281 -660q-174 -119 -473 -118h-59q-129 0 -246 26l-117 -207l-221 123l98 183q-270 182 -270 653zM440 764q0 -213 90 -334l449 803q-41 8 -92 8h-6h-11h-2h-4 q-68 0 -129 -12h-2q-4 0 -4 -2q-4 -2 -6 -2q-4 0 -6 -2q-113 -31 -185 -121v2q-92 -117 -92 -336v-4zM750 301q55 -12 114 -12h4h2h11q4 0 6 2q207 0 307 131q88 111 88 342v4q0 227 -86 336z" />
<glyph unicode="&#xd9;" horiz-adv-x="1507" d="M72 715q0 -270 51 -381q78 -182 235 -264q156 -84 394 -84q229 0 391 84q158 76 241 264q53 123 54 381v819h-385v-891q0 -219 -68 -270q-47 -72 -233 -78q-180 6 -240 78q-53 43 -53 262v899h-387v-819zM393 1989h260l197 -365h-176z" />
<glyph unicode="&#xda;" horiz-adv-x="1507" d="M72 715q0 -254 49 -381q80 -180 239 -264q156 -84 396 -84q236 0 389 84q162 78 241 264q53 123 54 381v819h-389v-899q0 -223 -62 -262q-47 -72 -233 -78q-186 6 -240 78q-63 47 -63 270v891h-381v-819zM655 1624l203 365h256l-278 -365h-181z" />
<glyph unicode="&#xdb;" horiz-adv-x="1499" d="M68 715v819h381v-899q0 -217 59 -262q47 -72 240 -78q188 6 235 78q63 47 64 270v891h380v-819q0 -264 -51 -381q-90 -188 -237 -264q-158 -84 -391 -84q-238 0 -396 84q-160 82 -235 264q-49 113 -49 381zM408 1624l223 287h231l219 -287h-219l-114 139l-117 -139h-223z " />
<glyph unicode="&#xdc;" horiz-adv-x="1523" d="M78 715q0 -276 51 -381q82 -184 240 -264q152 -84 389 -84q240 0 393 84q158 82 240 264q49 117 49 381v819h-385v-899q0 -221 -60 -262q-53 -72 -237 -78q-188 6 -236 78q-63 51 -63 270v891h-381v-819zM385 1794q0 74 33 100q37 29 108 29q78 0 109 -29q33 -30 33 -100 q0 -68 -33 -96q-31 -29 -109 -29q-72 0 -108 29q-33 25 -33 96zM846 1794q0 76 31 100q31 29 110 29q82 0 112.5 -28.5t30.5 -100.5q0 -70 -30 -96q-31 -29 -113 -29q-80 0 -110 29q-31 23 -31 96z" />
<glyph unicode="&#xdd;" horiz-adv-x="1280" d="M6 1534l416 -1057l-189 -477h426l615 1534h-430l-205 -633l-205 633h-428zM555 1618l201 364h256l-277 -364h-180z" />
<glyph unicode="&#xde;" horiz-adv-x="1437" d="M88 -96v1773h399v-315q63 8 215 8q322 0 488 -143q170 -150 170 -387q0 -307 -193.5 -455.5t-498.5 -148.5q-76 0 -181 16v-348h-399zM487 561q78 -12 164 -12q160 0 237 69.5t77 192.5t-79 187.5t-227 64.5q-111 0 -172 -12v-490z" />
<glyph unicode="&#xdf;" horiz-adv-x="1329" d="M82 0v954q0 354 174 510q78 70 168 99.5t260 29.5q217 0 357.5 -111.5t144.5 -297.5q2 -86 -24.5 -157t-60.5 -104.5t-64.5 -60t-32.5 -35.5q-2 -20 -7.5 -26t7 -21.5t17.5 -21.5t25.5 -23.5t32.5 -29.5q43 -43 64.5 -67t54.5 -71t48.5 -99t15.5 -112q0 -174 -124 -276.5 t-347 -102.5q-166 0 -250 33l41 252q68 -33 168 -33q72 0 112.5 32t40.5 81q0 68 -84 152l-58 58t-70.5 75.5t-40 78t-9.5 103.5q8 41 60.5 94t97.5 116.5t45 137.5q0 80 -49.5 129t-128.5 49q-119 0 -175.5 -79.5t-56.5 -274.5v-981h-352z" />
<glyph unicode="&#xe0;" d="M59 307q0 -117 58 -205q90 -115 239 -114h33q152 0 299 80q2 -18 10 -48q2 -2 4.5 -10t2.5 -10h274v672q0 160 -43 256q-80 164 -397 164h-342l-29 -283h317q92 0 127 -29q33 -12 33 -125v-37h-156q-227 0 -292 -40q-137 -63 -138 -263v-8zM172 1534h258l201 -365h-180z M397 315q0 41 17 58q18 20 116 20h115v-125q-88 -43 -156 -43q-92 0 -92 90z" />
<glyph unicode="&#xe1;" d="M59 307q0 -117 60 -205q90 -115 237 -114h31q154 0 301 80q2 -18 10 -48q2 -4 4.5 -11t4.5 -9h274v672q0 166 -45 256q-78 164 -395 164h-342l-31 -283h315q90 0 131 -29q31 -12 31 -125v-37h-158q-229 0 -288 -40q-139 -66 -140 -263v-8zM381 1169l203 365h256 l-277 -365h-182zM395 315q0 41 17 58q18 20 120 20h113v-125q-88 -43 -158 -43q-92 0 -92 90z" />
<glyph unicode="&#xe2;" d="M59 307q0 -115 60 -205q90 -115 239 -114h31q152 0 299 80q2 -18 10 -48q2 -2 4.5 -10t2.5 -10h276l2 672q0 164 -45 256q-80 164 -399 164h-338l-29 -283h311q94 0 129 -29q31 -12 31 -125v-37h-156q-221 0 -286 -40q-141 -66 -142 -263v-8zM219 1192l219 285h232 l221 -285h-221l-117 139l-115 -139h-219zM397 315q0 41 17 58q18 20 116 20h113v-125q-86 -43 -156 -43q-90 0 -90 90z" />
<glyph unicode="&#xe3;" d="M63 307q0 -115 62 -203q86 -117 235 -116h33q152 0 301 80q2 -18 11 -48q0 -2 2 -10t4 -10h276v670q0 170 -45 262q-80 158 -397 158h-340l-31 -281h315q92 0 127 -27q35 -16 35 -129v-35h-157q-225 0 -291 -40q-139 -66 -140 -263v-8zM217 1174q-6 113 46 176t140 63 q53 0 148 -37q80 -33 96 -33q29 0 42 16.5t18 63.5h159q8 -233 -186 -233q-51 0 -158 37q-68 29 -88 28q-47 0 -53 -81h-164zM401 315q0 33 17 56q20 20 119 20h114v-121q-88 -45 -157 -45q-92 0 -93 90z" />
<glyph unicode="&#xe4;" d="M61 307q0 -117 58 -205q90 -115 237 -114h31q156 0 303 80q2 -18 10 -48q0 -2 2.5 -10t4.5 -10h272l2 672q0 164 -45 256q-78 164 -395 164h-342l-29 -283h317q92 0 127 -29q33 -12 33 -125v-37h-155q-227 0 -293 -40q-137 -63 -138 -263v-8zM164 1327.5q0 71.5 33 97.5 q31 29 110 29q74 0 111 -29q31 -28 31 -98t-31 -98q-35 -29 -111 -29q-80 0 -110 29q-33 27 -33 98.5zM399 315q0 41 17 58q18 20 119 20h112v-125q-90 -43 -155 -43q-92 0 -93 90zM624.5 1327.5q0.5 69.5 34.5 97.5q29 29 109 29t109 -29q30 -28 30 -98t-30 -98 q-29 -29 -109 -29t-109 29q-35 29 -34.5 98.5z" />
<glyph unicode="&#xe5;" d="M63 307v8q0 203 136 260q57 43 284 43h162v33q0 119 -35 131q-33 27 -129 27h-311l31 283h336q319 0 403 -160q43 -98 43 -260v-674h-281q-2 2 -4 9t-2 11q-8 29 -10 48q-145 -78 -299 -78h-31q-150 0 -235 112q-57 88 -58 207zM315 1339q0 88 62.5 145.5t171.5 57.5 q111 0 171 -56t60 -147q0 -84 -63.5 -140t-170 -56t-169 56t-62.5 140zM395 315q0 -90 92 -90q66 0 158 45v123h-115q-96 0 -116 -18q-18 -18 -19 -60zM455 1339q0 -39 24.5 -66.5t67.5 -27.5q41 0 64.5 25.5t23.5 68.5q0 41 -24.5 71t-65.5 30q-45 0 -67.5 -30t-22.5 -71z " />
<glyph unicode="&#xe6;" horiz-adv-x="1673" d="M61 307v8q0 197 138 265q57 39 290 38h158v37q0 113 -33 127q-35 29 -129 29h-315l31 283h342q178 0 280 -54q27 14 72 35q104 35 229 35q343 0 441 -221q37 -104 37 -246v-188v-6h-613v-33q0 -111 74 -135q43 -14 119 -15h26q170 0 363 39h4v-274q0 -6 -168 -33 q-111 -12 -250 -12q-252 0 -377 116q-72 -33 -75 -34q-164 -80 -316 -80h-31q-150 0 -239 116q-57 88 -58 203zM397 315q0 -90 92 -90q70 0 158 45v123h-112q-100 0 -119 -20q-18 -18 -19 -58zM989 676h277v18q0 113 -47 135q-37 25 -93 25q-137 0 -137 -127v-51z" />
<glyph unicode="&#xe7;" horiz-adv-x="980" d="M70 557v72q0 231 61 319q121 207 432 207q170 0 348 -45v-274h-6q-197 35 -305 34q-129 0 -158 -39q-35 -23 -34 -172v-139q0 -139 30 -164q31 -45 158 -45h22q90 0 291 39h2v-274q0 -6 -182 -35q-41 -8 -106 -8l-27 -53q133 -33 133 -146q0 -88 -64.5 -129t-154.5 -41 q-88 0 -152 35l35 113q45 -25 101 -25q63 0 63 45q0 29 -31.5 44t-109.5 24l63 135q-276 25 -373 250q-37 76 -36 272z" />
<glyph unicode="&#xe8;" horiz-adv-x="1097" d="M74 428q0 -100 37 -199q106 -246 467 -245q139 0 247 12q172 31 172 35v270h-4q-201 -37 -364 -37h-27q-76 0 -119 17q-72 23 -71 133v32h612v5v188q0 160 -39 250q-98 217 -438 217q-113 0 -230 -35q-244 -96 -243 -383v-260zM180 1534h260l203 -365h-182zM412 672v51 q0 131 137 131q51 0 94 -25q45 -27 45 -139v-18h-276z" />
<glyph unicode="&#xe9;" horiz-adv-x="1097" d="M76 428q0 -94 39 -199q106 -246 467 -245q137 0 247 12q170 31 170 35v270h-2q-197 -37 -364 -37h-27q-76 0 -119 17q-74 23 -73 133v32h612v5v188q0 160 -39 250q-94 217 -436 217q-111 0 -232 -35q-244 -96 -243 -383v-260zM414 672v51q0 131 139 131q55 0 92 -25 q45 -27 45 -139v-18h-276zM463 1169l201 365h258l-279 -365h-180z" />
<glyph unicode="&#xea;" horiz-adv-x="1097" d="M76 428q0 -94 39 -199q104 -246 467 -245q139 0 245 12q170 31 170 35v270h-4q-195 -37 -364 -37h-25q-76 0 -119 17q-72 23 -71 133v32h610v5v188q0 160 -39 250q-98 217 -436 217q-109 0 -232 -35q-242 -94 -241 -383v-260zM215 1194l221 283h230l221 -283h-221 l-117 137l-113 -137h-221zM414 672v51q0 131 137 131q51 0 92 -25q45 -27 45 -139v-18h-274z" />
<glyph unicode="&#xeb;" horiz-adv-x="1097" d="M74 432q0 -96 41 -201q106 -246 465 -245q145 0 245 14q168 27 168 37v264l-2 2q-186 -35 -364 -35h-25q-86 0 -117 15q-78 23 -77 135v31h610l6 6v188q0 146 -41 244q-98 219 -438 219q-129 0 -230 -33q-242 -98 -241 -381v-260zM176 1329q0 70 35 94q31 31 111 31 q76 0 106 -31q35 -24 35 -94q0 -72 -35 -96q-31 -31 -106 -31q-80 0 -111 31q-35 25 -35 96zM408 674v53q0 127 141 127q49 0 90 -23q47 -29 47 -139v-18h-278zM637 1329q0 70 33 94q31 31 108 31q80 0 109 -31q31 -22 31 -94q0 -74 -31 -96q-29 -31 -109 -31q-78 0 -108 31 q-33 25 -33 96z" />
<glyph unicode="&#xec;" horiz-adv-x="620" d="M6 1530h262l199 -363h-178zM215 0v1090h336v-1090h-336z" />
<glyph unicode="&#xed;" horiz-adv-x="614" d="M63 0v1092h338v-1092h-338zM147 1169l203 363h260l-280 -363h-183z" />
<glyph unicode="&#xee;" horiz-adv-x="761" d="M41 1192l221 291h232l219 -291h-219l-117 143l-115 -143h-221zM211 0v1092h334v-1092h-334z" />
<glyph unicode="&#xef;" horiz-adv-x="806" d="M39 1313q0 68 35 92q29 31 102 31q82 0 111 -31q35 -25 35 -92q0 -72 -35 -96q-29 -31 -111 -31q-73 0 -102 31q-35 25 -35 96zM242 0v1092h331v-1092h-331zM492 1313q0 63 32 92q35 31 111 31t106 -31q31 -27 31 -92q0 -70 -31 -96q-31 -31 -106.5 -31t-110.5 31 q-33 29 -32 96z" />
<glyph unicode="&#xf0;" horiz-adv-x="1380" d="M70 588q0 250 161.5 404.5t397.5 162.5q106 6 157 -16q-96 117 -190 180l-348 -152l-66 146l254 112q-90 61 -225 121l160 203q211 -80 379 -190l333 143l74 -139l-254 -113q186 -152 297 -367q98 -190 98 -448q0 -162 -52 -290t-140 -205t-196.5 -115.5t-227.5 -38.5 q-264 0 -438 164.5t-174 437.5zM399 569q0 -137 75 -228t210 -91q137 0 209 88t72 240q0 174 -70 237q-74 74 -207 74q-150 0 -219.5 -97.5t-69.5 -222.5z" />
<glyph unicode="&#xf1;" horiz-adv-x="1118" d="M72 0h336v778q70 41 143 45q25 2 65 -2q94 -18 95 -123v-698h340v641q0 239 -41 313q-57 94 -138 126t-194 26q-139 -6 -297 -84q-25 70 -33 70h-276v-1092zM238 1174q-4 115 46 177t138 62q55 0 149 -37q88 -33 97 -33q27 0 40 16.5t17 63.5h160q10 -233 -187 -233 q-47 0 -157 37q-61 29 -86 28q-49 0 -56 -81h-161z" />
<glyph unicode="&#xf2;" horiz-adv-x="1042" d="M31 446q0 -319 225 -409q104 -49 262 -49q328 0 443 213q45 98 45 227v242q0 319 -275 405q-86 27 -194 27h-37q-344 0 -441 -256q-28 -74 -28 -199v-201zM160 1532h258l198 -367h-176zM367 436v223q0 129 75 150q25 12 60 12h30q88 0 130 -71q8 -18 8 -70v-274 q0 -139 -152 -140h-6q-117 0 -139 103q-6 16 -6 67z" />
<glyph unicode="&#xf3;" horiz-adv-x="1034" d="M31 428q0 -129 45 -227q113 -213 442 -213q158 0 262 49q223 88 224 409v201q0 113 -25 199q-98 256 -442 256h-37q-109 0 -197 -27q-272 -86 -272 -405v-242zM367 406v274q0 39 10 70q35 72 127 71h28q29 0 64 -12q74 -23 74 -150v-223q0 -18 -6 -67q-23 -102 -140 -103 h-6q-152 0 -151 140zM418 1165l200 367h256l-276 -367h-180z" />
<glyph unicode="&#xf4;" horiz-adv-x="1038" d="M31 426q0 -133 45 -223q109 -215 442 -215q162 0 260 45q227 88 228 413v201q0 115 -27 201q-94 254 -442 254h-39q-109 0 -195 -27q-272 -86 -272 -405v-244zM184 1194l219 283h232l219 -283h-219l-117 137l-115 -137h-219zM365 403v277q0 37 10 68q39 74 129 73h28 q37 0 64 -14q74 -20 74 -148v-225q0 -57 -4 -67q-25 -102 -142 -103h-6q-154 0 -153 139z" />
<glyph unicode="&#xf5;" horiz-adv-x="1036" d="M31 428q0 -125 47 -225q106 -215 440 -215q147 0 264 47q225 92 226 414v198q0 105 -29 201q-96 256 -442 256h-35q-104 0 -197 -25q-274 -92 -274 -409v-242zM195 1174q-4 115 46 177t142 62q53 0 147 -37q80 -33 95 -33q29 0 42 16.5t17 63.5h158q10 -233 -185 -233 q-51 0 -157 37q-63 29 -86 28q-47 0 -54 -81h-165zM369 406v276q0 43 10 68q35 74 127 73h26q35 0 66 -12q74 -25 74 -152v-223q0 -37 -4 -69q-25 -100 -142 -101h-8q-150 0 -149 140z" />
<glyph unicode="&#xf6;" horiz-adv-x="1042" d="M31 428v242q0 317 272 403q96 29 195 29h39q342 0 440 -256q31 -86 31 -199v-198q0 -322 -230 -414q-111 -47 -262 -47q-336 0 -438 213q-47 100 -47 227zM143 1325q0 72 35 96q27 31 109 31t108 -31q31 -27 31 -96.5t-31 -99.5q-31 -27 -108.5 -27t-108.5 27 q-35 31 -35 100zM365 403q0 -139 151 -139h6q115 0 142 101q4 37 4 71v226q0 125 -74 147q-31 12 -62 12h-30q-92 0 -127 -73q-10 -25 -10 -66v-279zM604 1325.5q0 67.5 33 95.5q27 31 111 31q82 0 108 -31q31 -23 31 -96.5t-31 -100t-108 -26.5q-80 0 -111 27 q-33 33 -33 100.5z" />
<glyph unicode="&#xf7;" horiz-adv-x="1824" d="M88 422v242h1653v-242h-1653zM737 94q0 90 39 121q39 39 137 39q95 0 140 -39q35 -35 34.5 -121t-34.5 -125q-41 -37 -140 -37q-100 0 -137 37q-39 35 -39 125zM737 995q0 92 39 125q33 35 137 35q102 0 140 -35q35 -37 34.5 -125t-34.5 -123q-37 -33 -140 -32 q-104 -1 -137 32q-39 31 -39 123z" />
<glyph unicode="&#xf8;" horiz-adv-x="1320" d="M68 569q0 594 594 586q123 4 215 -18l75 131l150 -80l-68 -117q213 -143 209 -493q4 -293 -138 -444.5t-452 -147.5q-117 -2 -219 22l-76 -137l-147 84l65 119q-209 137 -208 495zM373 569q-2 -147 53 -231l317 559q-31 8 -84 8h-2h-2h-2h-2q-150 0 -219 -94 q-63 -80 -59 -238v-2v-2zM569 246q45 -10 82 -10h2h2h2h2q150 0 220 94q59 82 59 239v2v2q0 147 -53 230z" />
<glyph unicode="&#xf9;" horiz-adv-x="1142" d="M82 453q0 -246 39 -318q59 -96 140 -125.5t196 -23.5q47 2 91 9t79 19.5t58.5 21.5t46 20.5t24.5 13.5q2 -10 20 -52l10 -20h279v1096h-336h-2v-781q-74 -43 -145 -47q-39 -4 -66 2q-96 25 -96 125v701h-338v-641zM213 1534h256l203 -365h-183z" />
<glyph unicode="&#xfa;" horiz-adv-x="1142" d="M80 453q0 -238 43 -318q86 -162 336 -149q47 2 90 10t75.5 19.5t56.5 21.5t44 20.5t25 12.5q4 -16 24 -52q8 -8 12 -20h277v1096h-338h-2v-781q-68 -43 -141 -47q-39 -4 -66 2q-94 20 -94 125v701h-342v-641zM465 1169l203 365h256l-279 -365h-180z" />
<glyph unicode="&#xfb;" horiz-adv-x="1142" d="M80 453q0 -238 43 -318q55 -96 136 -125.5t196 -23.5q57 2 112.5 14t86 25.5t62.5 29t34 15.5q2 -10 20 -52l10 -20h283v1096h-340v-781q-74 -43 -143 -47q-39 -4 -64 2q-98 25 -98 125v701h-338v-641zM233 1196l222 283h231l221 -283h-221l-117 139l-114 -139h-222z" />
<glyph unicode="&#xfc;" horiz-adv-x="1142" d="M80 453v641h340v-701q0 -100 96 -125q27 -6 66 -2q72 4 145 47v781h334v-1096h-277l-10 20q-10 25 -18 52q-4 -2 -35 -16.5t-61.5 -28t-86 -25.5t-114.5 -14q-117 -6 -200 23.5t-138 125.5q-41 76 -41 318zM197 1329q0 68 30 94q27 33 113 33q78 0 111 -33q33 -29 32 -94 q0 -68 -32 -98q-33 -27 -111 -27q-86 0 -113 27q-31 29 -30 98zM662 1329q0 66 32 94q33 33 109 33q84 0 110 -33q33 -29 33 -94q0 -68 -33 -98q-27 -27 -110 -27q-76 0 -109 27q-33 31 -32 98z" />
<glyph unicode="&#xfd;" horiz-adv-x="1282" d="M31 1092l452 -1092q0 -109 -71 -131q-37 -16 -121 -16h-25q-59 0 -90 2v-279q94 -4 139 -4q156 0 267 45q41 18 77.5 49t59 54.5t48.5 72.5t34 66.5t30.5 77t24.5 63.5l213 594l178 498h-375l-213 -674l-256 674h-372zM549 1165l203 367h256l-277 -367h-182z" />
<glyph unicode="&#xfe;" horiz-adv-x="1492" d="M84 -547v2175h408v-553q164 125 389 125q217 4 376.5 -175t159.5 -484q0 -309 -158.5 -488.5t-377.5 -175.5q-223 0 -389 127v-551h-408zM485 541q0 -123 33 -187q71 -135 223 -135q119 0 193 92t78 230q-4 139 -77 229t-194 90q-68 0 -127 -37t-96 -98q-33 -61 -33 -184 z" />
<glyph unicode="&#xff;" horiz-adv-x="1284" d="M35 1092h373l258 -674l211 674h374l-178 -498l-211 -594q-61 -178 -114 -250q-66 -92 -164 -133q-104 -45 -265 -45q-51 0 -137 4v279q31 -2 90 -2h27q90 0 119 16q72 23 71 131zM272 1327q0 68 31 94q31 31 113 31q78 0 106 -31q33 -29 33 -94q0 -68 -33 -96 q-29 -31 -106 -31q-82 0 -113 31q-31 27 -31 96zM731 1327q0 70 33 94q31 31 108 31q80 0 111 -31q31 -27 31 -94q0 -70 -31 -96q-31 -31 -111 -31q-77 0 -108 31q-33 25 -33 96z" />
<glyph unicode="&#x152;" horiz-adv-x="1863" d="M43 719v100q0 324 86 443q76 129 203 196q156 88 393 88q96 0 176 -12v2h893v-301h-502v-322h400l-33 -280h-367v-336h502v-297h-887q-96 -14 -182 -14q-236 0 -393 84q-162 88 -238 268q-51 104 -51 381zM424 645q0 -229 63 -274q53 -72 238 -78q113 2 176 33v878 q-74 29 -176 31q-172 -6 -231 -68q-70 -41 -70 -288v-234z" />
<glyph unicode="&#x153;" horiz-adv-x="1708" d="M35 426v248q0 313 274 405q102 27 197 27h35q186 0 305 -76q33 27 82 43q104 35 229 35q338 0 440 -221q37 -86 37 -248v-190h-614v-33q0 -111 72 -133q47 -14 120 -15h25q178 0 365 35h6v-270q0 -4 -172 -35q-147 -12 -244 -12q-213 0 -340 84q-35 -23 -64 -33 q-111 -47 -268 -47q-334 0 -438 215q-47 92 -47 221zM373 408q0 -139 147 -140h8q119 0 142 99q6 27 6 71v224q0 129 -74 153q-31 8 -63 8h-29q-94 0 -129 -71q-8 -23 -8 -68v-276zM1020 676h276v18q0 113 -45 137q-47 25 -92 25q-139 0 -139 -133v-47z" />
<glyph unicode="&#x178;" horiz-adv-x="1280" d="M4 1534l418 -1057l-191 -477h428l615 1534h-428l-207 -633l-205 633h-430zM268 1788q0 72 31 98q29 29 111 29q78 0 108 -29q33 -28 33 -98q0 -66 -33 -94q-33 -33 -108 -33q-80 0 -111 33q-31 27 -31 94zM727 1788q0 74 33 98q31 29 108 29q80 0 111 -29q31 -26 31 -98 q0 -68 -31 -94q-33 -33 -111 -33q-76 0 -108 33q-33 25 -33 94z" />
<glyph unicode="&#x2c6;" horiz-adv-x="1333" d="M61 811l461 862h281l465 -862h-316l-288 571h-9l-288 -571h-306z" />
<glyph unicode="&#x2000;" horiz-adv-x="994" />
<glyph unicode="&#x2001;" horiz-adv-x="1989" />
<glyph unicode="&#x2002;" horiz-adv-x="994" />
<glyph unicode="&#x2003;" horiz-adv-x="1989" />
<glyph unicode="&#x2004;" horiz-adv-x="663" />
<glyph unicode="&#x2005;" horiz-adv-x="497" />
<glyph unicode="&#x2006;" horiz-adv-x="331" />
<glyph unicode="&#x2007;" horiz-adv-x="331" />
<glyph unicode="&#x2008;" horiz-adv-x="248" />
<glyph unicode="&#x2009;" horiz-adv-x="397" />
<glyph unicode="&#x200a;" horiz-adv-x="110" />
<glyph unicode="&#x2010;" horiz-adv-x="1083" d="M82 408v280h924v-280h-924z" />
<glyph unicode="&#x2011;" horiz-adv-x="1083" d="M82 408v280h924v-280h-924z" />
<glyph unicode="&#x2012;" horiz-adv-x="1083" d="M82 408v280h924v-280h-924z" />
<glyph unicode="&#x2013;" horiz-adv-x="1183" d="M82 408v280h1024v-280h-1024z" />
<glyph unicode="&#x2014;" horiz-adv-x="2207" d="M82 408v280h2048v-280h-2048z" />
<glyph unicode="&#x2018;" horiz-adv-x="495" d="M72 1180q0 47 12 84q8 20 14 28l142 240l98 4l-72 -195q90 -14 117 -41q41 -33 41 -120q0 -92 -41 -125q-39 -33 -135 -33q-98 0 -137 33q-39 31 -39 125z" />
<glyph unicode="&#x2019;" horiz-adv-x="514" d="M78 1376q0 92 41 125q37 33 135 33t137 -33q39 -31 39 -125q0 -41 -14 -84q-9 -20 -13 -28l-141 -240l-98 -4l72 194q-90 14 -117 41q-41 33 -41 121z" />
<glyph unicode="&#x201a;" horiz-adv-x="491" d="M70 145q0 92 41 125q37 33 135 33t137 -33q39 -31 39 -125q0 -41 -14 -84q-9 -20 -13 -28l-141 -240l-98 -4l71 195q-90 14 -116 41q-41 33 -41 120z" />
<glyph unicode="&#x201c;" horiz-adv-x="901" d="M63 1180q0 47 13 84q8 20 14 28l141 240l99 4l-72 -195q90 -14 117 -41q41 -33 41 -120q0 -92 -41 -125q-39 -33 -135 -33q-98 0 -138 33q-39 31 -39 125zM481 1180q0 47 13 84q8 20 14 28l141 240l99 4l-72 -195q90 -14 117 -41q41 -33 41 -120q0 -92 -41 -125 q-39 -33 -136 -33q-98 0 -137 33q-39 31 -39 125z" />
<glyph unicode="&#x201d;" horiz-adv-x="917" d="M76 1376q0 92 41 125q37 33 135 33t137 -33q39 -31 39 -125q0 -41 -14 -84q-9 -20 -13 -28l-141 -240l-98 -4l71 194q-90 14 -116 41q-41 33 -41 121zM494 1376q0 92 41 125q37 33 135 33t137 -33q39 -31 39 -125q0 -41 -15 -84q-8 -20 -12 -28l-141 -240l-98 -4l71 194 q-90 14 -116 41q-41 33 -41 121z" />
<glyph unicode="&#x201e;" horiz-adv-x="897" d="M63 145q0 92 41 125q37 33 135.5 33t137.5 -33q39 -31 39 -125q0 -41 -15 -84q-8 -20 -12 -28l-141 -240l-98 -4l71 195q-90 14 -117 41q-41 33 -41 120zM481 145q0 92 41 125q37 33 135.5 33t137.5 -33q39 -31 39 -125q0 -41 -15 -84q-8 -20 -12 -28l-141 -240l-99 -4 l72 195q-90 14 -117 41q-41 33 -41 120z" />
<glyph unicode="&#x202f;" horiz-adv-x="397" />
<glyph unicode="&#x2039;" horiz-adv-x="1026" d="M59 541l482 612h428l-488 -612l488 -615h-428z" />
<glyph unicode="&#x203a;" horiz-adv-x="1050" d="M78 -72l487 613l-487 614h428l481 -614l-481 -613h-428z" />
<glyph unicode="&#x205f;" horiz-adv-x="497" />
<glyph unicode="&#x20ac;" horiz-adv-x="1495" d="M72 549l20 170h203v92h-195l23 172h178q23 199 86 279q174 283 621 282q193 0 403 -43v-301q-227 33 -362 33q-240 0 -304 -70q-46 -22 -69 -180h667l-20 -172h-651v-92h639l-17 -170h-620q14 -139 65 -178q53 -76 299 -76h39q119 0 334 33v-303q-12 -2 -43 -7.5 t-60.5 -9.5t-58.5 -8q-125 -14 -241 -14q-502 0 -660 354q-39 82 -47 209h-229z" />
<glyph unicode="&#x2122;" horiz-adv-x="1517" d="M70 1278v147h534v-147h-174v-467h-190v467h-170zM651 811l37 614h287q4 -20 13 -67t16 -72q25 -117 40 -211l89 350h280l33 -614h-182q-4 147 -6.5 257t-3.5 146.5t-2 61t-1 45.5l-121 -498h-178l-108 498q0 -92 -10 -287q-8 -129 -11 -223h-172z" />
<glyph unicode="&#xe000;" horiz-adv-x="1085" d="M0 0v1085h1085v-1085h-1085z" />
</font>
</defs>
</svg>
